<svg width="48" height="48" fill="none" xmlns="http://www.w3.org/2000/svg"><path opacity=".6" fill-rule="evenodd" clip-rule="evenodd" d="M4 40V8.002h40v32H4zm32.968-24.75h-3.5v17.5h3.5v-17.5z" fill="url(#paint0_linear_6876_221384)"/><path fill-rule="evenodd" clip-rule="evenodd" d="M40 12.001H8v24h32V12zm-3.032 3.25h-3.5v17.5h3.5v-17.5z" fill="#76808F"/><path opacity=".3" d="M18.25 1.75L20 3.5l1.75-1.75L20 0l-1.75 1.75zM0 21.001l1 1 1-1-1-1-1 1zm33 24.998h2v-2h-2v2z" fill="#AEB4BC"/><path d="M20 31.916a7.917 7.917 0 100-15.833 7.917 7.917 0 000 15.833z" fill="url(#paint1_linear_6876_221384)"/><path d="M16.914 19.962L20 18.142l3.088 1.82-1.109.634L20 19.487l-1.979 1.109-1.108-.634zm6.175 2.217l-1.109-.633-1.979 1.108-1.979-1.108-1.108.633v1.346l1.979 1.108v2.296l1.108.633 1.108-.633v-2.296l1.98-1.108v-1.346zm0 3.642v-1.346l-1.109.633v1.346l1.109-.633zm.791.395l-1.979 1.109v1.346l3.088-1.821v-3.563L23.88 24v2.216zm-1.108-5.145l1.108.633v1.346l1.109-.633V21.07l-1.109-.634-1.108.634zm-3.88 6.808v1.346l1.11.633 1.108-.633v-1.346l-1.11.633-1.108-.633zm-1.978-2.058l1.108.633v-1.346l-1.108-.633v1.346zm1.979-4.75l1.108.633 1.108-.633-1.108-.634-1.108.634zm-2.771.633l1.108-.633-1.108-.634-1.108.634v1.346l1.108.633v-1.346zm0 2.296l-1.108-.634v3.563l3.087 1.82v-1.345l-1.979-1.108V24z" fill="#76808F"/><defs><linearGradient id="paint0_linear_6876_221384" x1="24" y1="8.001" x2="24" y2="40.001" gradientUnits="userSpaceOnUse"><stop stop-color="#929AA5"/><stop offset="1" stop-color="#76808F"/></linearGradient><linearGradient id="paint1_linear_6876_221384" x1="20.001" y1="16.083" x2="20.001" y2="31.916" gradientUnits="userSpaceOnUse"><stop stop-color="#F8D33A"/><stop offset="1" stop-color="#F0B90B"/></linearGradient></defs></svg>